<?xml version="1.0" encoding="utf-8"?>
<!-- Generator: Adobe Illustrator 25.2.0, SVG Export Plug-In . SVG Version: 6.00 Build 0)  -->
<svg version="1.1" id="Layer_1" xmlns="http://www.w3.org/2000/svg" xmlns:xlink="http://www.w3.org/1999/xlink" x="0px" y="0px"
	 viewBox="0 0 64 64" style="enable-background:new 0 0 64 64;" xml:space="preserve">
<g>
	<path d="M32.2,6.7C18,6.7,6.4,18.3,6.4,32.5S18,58.3,32.2,58.3C46.5,58.3,58,46.7,58,32.5S46.5,6.7,32.2,6.7z M32.2,54.3
		c-12,0-21.8-9.8-21.8-21.8s9.8-21.8,21.8-21.8S54,20.5,54,32.5S44.2,54.3,32.2,54.3z"/>
	<path d="M37.1,18.7c-4.2,4.1-8.3,8.3-12.5,12.4c-0.8,0.8-0.8,2.1,0,2.8c4.1,4.1,8.3,8.3,12.4,12.4c1.8,1.8,4.7-1,2.8-2.8
		c-3.6-3.6-7.3-7.3-10.9-11c3.7-3.7,7.3-7.3,11-11C41.7,19.7,38.9,16.8,37.1,18.7z"/>
</g>
</svg>
