<?xml version="1.0" encoding="utf-8"?>
<!-- Generator: Adobe Illustrator 25.2.0, SVG Export Plug-In . SVG Version: 6.00 Build 0)  -->
<svg version="1.1" id="Layer_1" xmlns="http://www.w3.org/2000/svg" xmlns:xlink="http://www.w3.org/1999/xlink" x="0px" y="0px"
	 viewBox="0 0 64 64" style="enable-background:new 0 0 64 64;" xml:space="preserve">
<g>
	<path d="M32.1,7.1C17.7,7.1,6,18.9,6,33.3c0,14.4,11.7,26.1,26.1,26.1c14.4,0,26.1-11.7,26.1-26.1C58.3,18.9,46.6,7.1,32.1,7.1z
		 M32.1,55.4C19.9,55.4,10,45.5,10,33.3s9.9-22.1,22.1-22.1c12.2,0,22.1,9.9,22.1,22.1C54.3,45.5,44.4,55.4,32.1,55.4z"/>
	<path d="M26.4,19.2c-1.8-1.8-4.7,1-2.8,2.8c3.8,3.8,7.6,7.6,11.4,11.4c-3.8,3.8-7.6,7.6-11.4,11.4c-1.8,1.8,1,4.7,2.8,2.8
		c4.3-4.3,8.6-8.6,12.9-12.9c0.8-0.8,0.8-2.1,0-2.8C35,27.7,30.7,23.4,26.4,19.2z"/>
</g>
</svg>
